<?xml version="1.0" encoding="iso-8859-1"?>
<!-- Uploaded to: SVG Repo, www.svgrepo.com, Generator: SVG Repo Mixer Tools -->
<svg xmlns="http://www.w3.org/2000/svg" xmlns:xlink="http://www.w3.org/1999/xlink" version="1.1" id="Layer_1"  viewBox="0 0 502 502" xml:space="preserve" width="512" height="512">
<g>
	<g>
		<circle style="fill:#CCD7EB;" cx="251" cy="251" r="241"/>
		<path d="M251,502c-67.044,0-130.076-26.108-177.484-73.517C26.108,381.076,0,318.045,0,251S26.108,120.924,73.516,73.517    C120.924,26.108,183.956,0,251,0s130.076,26.108,177.484,73.517C475.892,120.924,502,183.955,502,251    s-26.108,130.076-73.516,177.483C381.076,475.892,318.044,502,251,502z M251,20C123.626,20,20,123.626,20,251s103.626,231,231,231    s231-103.626,231-231S378.374,20,251,20z"/>
	</g>
	<g>
		<path d="M432.279,189c-3.977,0-7.737-2.389-9.295-6.309c-19.172-48.226-57.997-86.416-106.521-104.778    c-5.166-1.954-7.769-7.727-5.813-12.892c1.955-5.164,7.725-7.77,12.892-5.813c53.766,20.346,96.785,62.661,118.027,116.095    c2.041,5.133-0.466,10.946-5.598,12.987C434.758,188.771,433.508,189,432.279,189z"/>
	</g>
	<g>
		<path d="M284.011,68.782c-0.558,0-1.123-0.047-1.692-0.145C272.048,66.888,261.511,66,251,66c-5.523,0-10-4.478-10-10    s4.477-10,10-10c11.634,0,23.301,0.983,34.68,2.923c5.444,0.928,9.105,6.093,8.178,11.537    C293.026,65.336,288.796,68.782,284.011,68.782z"/>
	</g>
	<g>
		<g>
			<g>
				<path style="fill:#4D93E8;" d="M278.68,369.36c-4.875,0-9.749-1.86-13.468-5.579l-96.633-96.633      c-7.438-7.438-7.438-19.498,0-26.936l96.633-96.633c7.438-7.438,19.498-7.438,26.936,0c7.438,7.438,7.438,19.498,0,26.936      l-83.165,83.165l83.165,83.165c7.438,7.438,7.438,19.498,0,26.936C288.429,367.5,283.555,369.36,278.68,369.36z"/>
				<path d="M278.68,379.36c-7.758,0-15.052-3.021-20.539-8.508l-96.634-96.633c-11.325-11.326-11.325-29.753,0-41.079      l96.633-96.633c5.486-5.486,12.781-8.508,20.54-8.508s15.053,3.021,20.539,8.508c5.486,5.485,8.508,12.78,8.508,20.539      c0,7.758-3.021,15.053-8.508,20.539l-76.094,76.094l76.094,76.095c5.486,5.485,8.508,12.78,8.508,20.539      c0,7.758-3.021,15.053-8.508,20.539C293.731,376.339,286.438,379.36,278.68,379.36z M278.68,148      c-2.417,0-4.688,0.941-6.397,2.65l-96.634,96.633c-3.527,3.527-3.527,9.267,0,12.794l96.633,96.633      c1.709,1.709,3.981,2.65,6.397,2.65s4.688-0.941,6.397-2.65c1.708-1.709,2.65-3.98,2.65-6.396s-0.941-4.688-2.65-6.396      l-83.166-83.166c-3.905-3.905-3.905-10.237,0-14.143l83.165-83.165c1.709-1.709,2.65-3.98,2.65-6.396      c0-2.417-0.941-4.688-2.65-6.396C283.368,148.941,281.097,148,278.68,148z"/>
			</g>
		</g>
	</g>
</g>















</svg>