<?xml version="1.0" encoding="iso-8859-1"?>
<!-- Uploaded to: SVG Repo, www.svgrepo.com, Generator: SVG Repo Mixer Tools -->
<svg height="800px" width="800px" version="1.1" id="Layer_1" xmlns="http://www.w3.org/2000/svg" xmlns:xlink="http://www.w3.org/1999/xlink" 
	 viewBox="0 0 502 502" xml:space="preserve">
<g>
	<g>
		<path style="fill:#5CC9C1;" d="M429.754,45.653l-64.791-17.356c-21.423-5.739-41.026,13.864-35.288,35.288l17.356,64.791
			c5.74,21.426,32.522,28.603,48.206,12.919l2.854-2.854c55.605,72.561,50.236,177.163-16.126,243.525
			c-10.893,10.893-10.893,28.555,0,39.447c10.893,10.893,28.554,10.893,39.447,0C466.932,375.894,492,315.374,492,251
			c0-56.163-19.086-109.391-54.183-152.285l4.856-4.856C458.357,78.175,451.18,51.393,429.754,45.653z"/>
		<path d="M401.688,439.564c-9.704,0-19.407-3.693-26.794-11.08c-14.774-14.775-14.774-38.816,0-53.591
			c59.362-59.361,67.837-152.862,21.519-221.663c-9.195,6.192-20.549,8.141-31.596,5.181c-13.554-3.632-23.814-13.893-27.445-27.447
			l-17.356-64.791c-3.63-13.553,0.125-27.567,10.046-37.488c9.921-9.922,23.936-13.678,37.488-10.047l64.791,17.356
			c13.555,3.631,23.815,13.89,27.448,27.444c3.456,12.897,0.224,26.212-8.646,36.021C484.448,143.193,502,195.393,502,251
			c0,67.044-26.108,130.076-73.516,177.484C421.096,435.871,411.393,439.564,401.688,439.564z M398.091,128.44
			c0.219,0,0.438,0.007,0.658,0.021c2.875,0.189,5.528,1.609,7.28,3.896c59.283,77.36,51.978,187.708-16.993,256.679
			c-6.976,6.977-6.976,18.329,0,25.307c6.977,6.976,18.329,6.977,25.305-0.001C457.972,370.711,482,312.702,482,251
			c0-53.968-17.954-104.437-51.922-145.951c-3.253-3.977-2.965-9.771,0.667-13.403l4.855-4.856
			c4.811-4.811,6.631-11.604,4.87-18.174c-1.761-6.569-6.734-11.543-13.304-13.303l0,0l-64.791-17.356
			c-6.57-1.76-13.363,0.061-18.171,4.87s-6.629,11.602-4.869,18.171l17.355,64.791c1.76,6.57,6.733,11.544,13.304,13.305
			c6.567,1.762,13.363-0.06,18.172-4.869l2.854-2.854C392.902,129.488,395.449,128.44,398.091,128.44z"/>
	</g>
	<g>
		<path style="fill:#FFF9E6;" d="M80.587,80.587C35.068,126.106,10,186.626,10,251c0,56.163,19.086,109.391,54.183,152.285
			l-4.856,4.856c-15.685,15.685-8.507,42.467,12.919,48.206l64.791,17.356c21.423,5.739,41.026-13.864,35.288-35.288l-17.356-64.791
			c-5.74-21.426-32.522-28.603-48.206-12.919l-2.854,2.854c-55.605-72.561-50.236-177.163,16.126-243.525
			c10.893-10.893,10.893-28.555,0-39.447S91.48,69.694,80.587,80.587z"/>
		<path d="M144.668,484.72c-3.388,0-6.817-0.446-10.219-1.357l-64.791-17.356c-13.555-3.631-23.815-13.89-27.448-27.444
			c-3.456-12.897-0.224-26.212,8.646-36.021C17.552,358.807,0,306.606,0,251c0-67.044,26.108-130.076,73.516-177.484l0,0
			c14.775-14.773,38.816-14.772,53.589,0c14.774,14.775,14.774,38.816,0,53.591c-59.362,59.361-67.837,152.862-21.519,221.663
			c9.195-6.193,20.549-8.141,31.596-5.181c13.554,3.632,23.814,13.893,27.445,27.447l17.356,64.791
			c3.63,13.553-0.125,27.567-10.046,37.488C164.507,480.747,154.778,484.719,144.668,484.72z M87.659,87.658
			C44.028,131.289,20,189.298,20,251c0,53.968,17.954,104.437,51.922,145.951c3.253,3.977,2.965,9.771-0.667,13.403L66.4,415.21
			c-4.811,4.811-6.631,11.604-4.87,18.174c1.761,6.569,6.734,11.543,13.304,13.303l64.791,17.356
			c6.568,1.759,13.361-0.062,18.171-4.87c4.809-4.81,6.629-11.602,4.869-18.171l-17.355-64.791
			c-1.76-6.57-6.733-11.544-13.304-13.305c-6.568-1.763-13.363,0.059-18.172,4.869l-2.854,2.854
			c-2.037,2.036-4.854,3.105-7.729,2.907c-2.875-0.189-5.528-1.609-7.28-3.896c-59.283-77.36-51.978-187.708,16.993-256.679
			c6.976-6.977,6.976-18.329,0-25.307C105.987,80.682,94.635,80.681,87.659,87.658L87.659,87.658z"/>
	</g>
	<path d="M38,256.869c-5.523,0-10-4.478-10-10c0-43.166,12.946-84.521,37.439-119.595c7.059-10.108,15.101-19.697,23.903-28.499
		c3.905-3.904,10.237-3.904,14.143,0c3.905,3.905,3.905,10.237,0,14.143c-7.975,7.975-15.258,16.657-21.648,25.808
		C59.701,170.424,48,207.819,48,246.869C48,252.392,43.523,256.869,38,256.869z"/>
	<path d="M55.443,347.002c-3.768,0-7.375-2.139-9.071-5.779c-5.487-11.781-9.884-24.155-13.068-36.778
		c-1.351-5.355,1.896-10.792,7.25-12.143s10.791,1.895,12.142,7.25c2.877,11.406,6.849,22.585,11.806,33.226
		c2.332,5.007,0.164,10.956-4.843,13.287C58.293,346.701,56.857,347.002,55.443,347.002z"/>
</g>
</svg>