<?xml version="1.0" encoding="utf-8"?><!-- Uploaded to: SVG Repo, www.svgrepo.com, Generator: SVG Repo Mixer Tools -->
<svg fill="#000000" width="800px" height="800px" viewBox="0 0 24 24" id="settings" data-name="Flat Line" xmlns="http://www.w3.org/2000/svg" class="icon flat-line"><path id="secondary" d="M20,10h-.59a1,1,0,0,1-.94-.67v0a1,1,0,0,1,.2-1.14l.41-.41a1,1,0,0,0,0-1.42L17.66,4.93a1,1,0,0,0-1.42,0l-.41.41a1,1,0,0,1-1.14.2h0A1,1,0,0,1,14,4.59V4a1,1,0,0,0-1-1H11a1,1,0,0,0-1,1v.59a1,1,0,0,1-.67.94h0a1,1,0,0,1-1.14-.2l-.41-.41a1,1,0,0,0-1.42,0L4.93,6.34a1,1,0,0,0,0,1.42l.41.41a1,1,0,0,1,.2,1.14v0a1,1,0,0,1-.94.67H4a1,1,0,0,0-1,1v2a1,1,0,0,0,1,1h.59a1,1,0,0,1,.94.67v0a1,1,0,0,1-.2,1.14l-.41.41a1,1,0,0,0,0,1.42l1.41,1.41a1,1,0,0,0,1.42,0l.41-.41a1,1,0,0,1,1.14-.2h0a1,1,0,0,1,.67.94V20a1,1,0,0,0,1,1h2a1,1,0,0,0,1-1v-.59a1,1,0,0,1,.67-.94h0a1,1,0,0,1,1.14.2l.41.41a1,1,0,0,0,1.42,0l1.41-1.41a1,1,0,0,0,0-1.42l-.41-.41a1,1,0,0,1-.2-1.14v0a1,1,0,0,1,.94-.67H20a1,1,0,0,0,1-1V11A1,1,0,0,0,20,10Zm-8,5a3,3,0,1,1,3-3A3,3,0,0,1,12,15Z" style="fill: rgb(44, 169, 188); stroke-width: 2;"></path><path id="primary" d="M15,12a3,3,0,1,1-3-3A3,3,0,0,1,15,12Zm5-2h-.59a1,1,0,0,1-.94-.67v0a1,1,0,0,1,.2-1.14l.41-.41a1,1,0,0,0,0-1.42L17.66,4.93a1,1,0,0,0-1.42,0l-.41.41a1,1,0,0,1-1.14.2h0A1,1,0,0,1,14,4.59V4a1,1,0,0,0-1-1H11a1,1,0,0,0-1,1v.59a1,1,0,0,1-.67.94h0a1,1,0,0,1-1.14-.2l-.41-.41a1,1,0,0,0-1.42,0L4.93,6.34a1,1,0,0,0,0,1.42l.41.41a1,1,0,0,1,.2,1.14v0a1,1,0,0,1-.94.67H4a1,1,0,0,0-1,1v2a1,1,0,0,0,1,1h.59a1,1,0,0,1,.94.67v0a1,1,0,0,1-.2,1.14l-.41.41a1,1,0,0,0,0,1.42l1.41,1.41a1,1,0,0,0,1.42,0l.41-.41a1,1,0,0,1,1.14-.2h0a1,1,0,0,1,.67.94V20a1,1,0,0,0,1,1h2a1,1,0,0,0,1-1v-.59a1,1,0,0,1,.67-.94h0a1,1,0,0,1,1.14.2l.41.41a1,1,0,0,0,1.42,0l1.41-1.41a1,1,0,0,0,0-1.42l-.41-.41a1,1,0,0,1-.2-1.14v0a1,1,0,0,1,.94-.67H20a1,1,0,0,0,1-1V11A1,1,0,0,0,20,10Z" style="fill: none; stroke: rgb(0, 0, 0); stroke-linecap: round; stroke-linejoin: round; stroke-width: 2;"></path></svg>